<svg xmlns="http://www.w3.org/2000/svg" width="800" height="80" viewBox="0 0 800 80" preserveAspectRatio="none">
  <!-- Background -->
  <rect width="800" height="80" fill="#F5ECD7"/>

  <defs>
    <!-- Blur filter for softer edges -->
    <filter id="blur">
      <feGaussianBlur in="SourceGraphic" stdDeviation="1.5"/>
    </filter>

    <!-- Define wave stripe shapes that interlock -->
    <clipPath id="wave1-clip">
      <path d="M -10,20 Q 10,10 30,20 Q 50,30 70,20 Q 90,10 110,20 Q 130,30 150,20 Q 170,10 190,20 Q 210,30 230,20 Q 250,10 270,20 Q 290,30 310,20 Q 330,10 350,20 Q 370,30 390,20 Q 410,10 430,20 Q 450,30 470,20 Q 490,10 510,20 Q 530,30 550,20 Q 570,10 590,20 Q 610,30 630,20 Q 650,10 670,20 Q 690,30 710,20 Q 730,10 750,20 Q 770,30 790,20 Q 810,10 830,20 L 830,32 Q 810,42 790,32 Q 770,22 750,32 Q 730,42 710,32 Q 690,22 670,32 Q 650,42 630,32 Q 610,22 590,32 Q 570,42 550,32 Q 530,22 510,32 Q 490,42 470,32 Q 450,22 430,32 Q 410,42 390,32 Q 370,22 350,32 Q 330,42 310,32 Q 290,22 270,32 Q 250,42 230,32 Q 210,22 190,32 Q 170,42 150,32 Q 130,22 110,32 Q 90,42 70,32 Q 50,22 30,32 Q 10,42 -10,32 Z"/>
    </clipPath>
    <clipPath id="wave2-clip">
      <path d="M -10,32 Q 10,22 30,32 Q 50,42 70,32 Q 90,22 110,32 Q 130,42 150,32 Q 170,22 190,32 Q 210,42 230,32 Q 250,22 270,32 Q 290,42 310,32 Q 330,22 350,32 Q 370,42 390,32 Q 410,22 430,32 Q 450,42 470,32 Q 490,22 510,32 Q 530,42 550,32 Q 570,22 590,32 Q 610,42 630,32 Q 650,22 670,32 Q 690,42 710,32 Q 730,22 750,32 Q 770,42 790,32 Q 810,22 830,32 L 830,44 Q 810,34 790,44 Q 770,54 750,44 Q 730,34 710,44 Q 690,54 670,44 Q 650,34 630,44 Q 610,54 590,44 Q 570,34 550,44 Q 530,54 510,44 Q 490,34 470,44 Q 450,54 430,44 Q 410,34 390,44 Q 370,54 350,44 Q 330,34 310,44 Q 290,54 270,44 Q 250,34 230,44 Q 210,54 190,44 Q 170,34 150,44 Q 130,54 110,44 Q 90,34 70,44 Q 50,54 30,44 Q 10,34 -10,44 Z"/>
    </clipPath>
    <clipPath id="wave3-clip">
      <path d="M -10,44 Q 10,54 30,44 Q 50,34 70,44 Q 90,54 110,44 Q 130,34 150,44 Q 170,54 190,44 Q 210,34 230,44 Q 250,54 270,44 Q 290,34 310,44 Q 330,54 350,44 Q 370,34 390,44 Q 410,54 430,44 Q 450,34 470,44 Q 490,54 510,44 Q 530,34 550,44 Q 570,54 590,44 Q 610,34 630,44 Q 650,54 670,44 Q 690,34 710,44 Q 730,54 750,44 Q 770,34 790,44 Q 810,54 830,44 L 830,56 Q 810,66 790,56 Q 770,46 750,56 Q 730,66 710,56 Q 690,46 670,56 Q 650,66 630,56 Q 610,46 590,56 Q 570,66 550,56 Q 530,46 510,56 Q 490,66 470,56 Q 450,46 430,56 Q 410,66 390,56 Q 370,46 350,56 Q 330,66 310,56 Q 290,46 270,56 Q 250,66 230,56 Q 210,46 190,56 Q 170,66 150,56 Q 130,46 110,56 Q 90,66 70,56 Q 50,46 30,56 Q 10,66 -10,56 Z"/>
    </clipPath>
    <clipPath id="wave4-clip">
      <path d="M -10,56 Q 10,46 30,56 Q 50,66 70,56 Q 90,46 110,56 Q 130,66 150,56 Q 170,46 190,56 Q 210,66 230,56 Q 250,46 270,56 Q 290,66 310,56 Q 330,46 350,56 Q 370,66 390,56 Q 410,46 430,56 Q 450,66 470,56 Q 490,46 510,56 Q 530,66 550,56 Q 570,46 590,56 Q 610,66 630,56 Q 650,46 670,56 Q 690,66 710,56 Q 730,46 750,56 Q 770,66 790,56 Q 810,46 830,56 L 830,68 Q 810,58 790,68 Q 770,78 750,68 Q 730,58 710,68 Q 690,78 670,68 Q 650,58 630,68 Q 610,78 590,68 Q 570,58 550,68 Q 530,78 510,68 Q 490,58 470,68 Q 450,78 430,68 Q 410,58 390,68 Q 370,78 350,68 Q 330,58 310,68 Q 290,78 270,68 Q 250,58 230,68 Q 210,78 190,68 Q 170,58 150,68 Q 130,78 110,68 Q 90,58 70,68 Q 50,78 30,68 Q 10,58 -10,68 Z"/>
    </clipPath>
  </defs>

  <!-- Wave stripes with interlocking effect - all with blur filter -->
  <g filter="url(#blur)">
  <!-- Top wave - Orange accent -->
  <path d="M -10,20 Q 10,10 30,20 Q 50,30 70,20 Q 90,10 110,20 Q 130,30 150,20 Q 170,10 190,20 Q 210,30 230,20 Q 250,10 270,20 Q 290,30 310,20 Q 330,10 350,20 Q 370,30 390,20 Q 410,10 430,20 Q 450,30 470,20 Q 490,10 510,20 Q 530,30 550,20 Q 570,10 590,20 Q 610,30 630,20 Q 650,10 670,20 Q 690,30 710,20 Q 730,10 750,20 Q 770,30 790,20 Q 810,10 830,20 L 830,32 Q 810,42 790,32 Q 770,22 750,32 Q 730,42 710,32 Q 690,22 670,32 Q 650,42 630,32 Q 610,22 590,32 Q 570,42 550,32 Q 530,22 510,32 Q 490,42 470,32 Q 450,22 430,32 Q 410,42 390,32 Q 370,22 350,32 Q 330,42 310,32 Q 290,22 270,32 Q 250,42 230,32 Q 210,22 190,32 Q 170,42 150,32 Q 130,22 110,32 Q 90,42 70,32 Q 50,22 30,32 Q 10,42 -10,32 Z" fill="#D4A017"/>

  <!-- Wave 2 - Harvest gold -->
  <path d="M -10,32 Q 10,22 30,32 Q 50,42 70,32 Q 90,22 110,32 Q 130,42 150,32 Q 170,22 190,32 Q 210,42 230,32 Q 250,22 270,32 Q 290,42 310,32 Q 330,22 350,32 Q 370,42 390,32 Q 410,22 430,32 Q 450,42 470,32 Q 490,22 510,32 Q 530,42 550,32 Q 570,22 590,32 Q 610,42 630,32 Q 650,22 670,32 Q 690,42 710,32 Q 730,22 750,32 Q 770,42 790,32 Q 810,22 830,32 L 830,44 Q 810,34 790,44 Q 770,54 750,44 Q 730,34 710,44 Q 690,54 670,44 Q 650,34 630,44 Q 610,54 590,44 Q 570,34 550,44 Q 530,54 510,44 Q 490,34 470,44 Q 450,54 430,44 Q 410,34 390,44 Q 370,54 350,44 Q 330,34 310,44 Q 290,54 270,44 Q 250,34 230,44 Q 210,54 190,44 Q 170,34 150,44 Q 130,54 110,44 Q 90,34 70,44 Q 50,54 30,44 Q 10,34 -10,44 Z" fill="#E8AA42" clip-path="url(#wave1-clip)"/>

  <!-- Wave 3 - Burnt orange -->
  <path d="M -10,44 Q 10,54 30,44 Q 50,34 70,44 Q 90,54 110,44 Q 130,34 150,44 Q 170,54 190,44 Q 210,34 230,44 Q 250,54 270,44 Q 290,34 310,44 Q 330,54 350,44 Q 370,34 390,44 Q 410,54 430,44 Q 450,34 470,44 Q 490,54 510,44 Q 530,34 550,44 Q 570,54 590,44 Q 610,34 630,44 Q 650,54 670,44 Q 690,34 710,44 Q 730,54 750,44 Q 770,34 790,44 Q 810,54 830,44 L 830,56 Q 810,66 790,56 Q 770,46 750,56 Q 730,66 710,56 Q 690,46 670,56 Q 650,66 630,56 Q 610,46 590,56 Q 570,66 550,56 Q 530,46 510,56 Q 490,66 470,56 Q 450,46 430,56 Q 410,66 390,56 Q 370,46 350,56 Q 330,66 310,56 Q 290,46 270,56 Q 250,66 230,56 Q 210,46 190,56 Q 170,66 150,56 Q 130,46 110,56 Q 90,66 70,56 Q 50,46 30,56 Q 10,66 -10,56 Z" fill="#D4764D" clip-path="url(#wave2-clip)"/>

  <!-- Wave 4 - Rust -->
  <path d="M -10,56 Q 10,46 30,56 Q 50,66 70,56 Q 90,46 110,56 Q 130,66 150,56 Q 170,46 190,56 Q 210,66 230,56 Q 250,46 270,56 Q 290,66 310,56 Q 330,46 350,56 Q 370,66 390,56 Q 410,46 430,56 Q 450,66 470,56 Q 490,46 510,56 Q 530,66 550,56 Q 570,46 590,56 Q 610,66 630,56 Q 650,46 670,56 Q 690,66 710,56 Q 730,46 750,56 Q 770,66 790,56 Q 810,46 830,56 L 830,68 Q 810,58 790,68 Q 770,78 750,68 Q 730,58 710,68 Q 690,78 670,68 Q 650,58 630,68 Q 610,78 590,68 Q 570,58 550,68 Q 530,78 510,68 Q 490,58 470,68 Q 450,78 430,68 Q 410,58 390,68 Q 370,78 350,68 Q 330,58 310,68 Q 290,78 270,68 Q 250,58 230,68 Q 210,78 190,68 Q 170,58 150,68 Q 130,78 110,68 Q 90,58 70,68 Q 50,78 30,68 Q 10,58 -10,68 Z" fill="#B85740" clip-path="url(#wave3-clip)"/>

  <!-- Wave 5 - Teal -->
  <path d="M -10,68 Q 10,78 30,68 Q 50,58 70,68 Q 90,78 110,68 Q 130,58 150,68 Q 170,78 190,68 Q 210,58 230,68 Q 250,78 270,68 Q 290,58 310,68 Q 330,78 350,68 Q 370,58 390,68 Q 410,78 430,68 Q 450,58 470,68 Q 490,78 510,68 Q 530,58 550,68 Q 570,78 590,68 Q 610,58 630,68 Q 650,78 670,68 Q 690,58 710,68 Q 730,78 750,68 Q 770,58 790,68 Q 810,78 830,68 L 830,80 L -10,80 Z" fill="#5A8C8C" clip-path="url(#wave4-clip)"/>

  <!-- Unclipped bottom wave for full visibility -->
  <path d="M -10,68 Q 10,78 30,68 Q 50,58 70,68 Q 90,78 110,68 Q 130,58 150,68 Q 170,78 190,68 Q 210,58 230,68 Q 250,78 270,68 Q 290,58 310,68 Q 330,78 350,68 Q 370,58 390,68 Q 410,78 430,68 Q 450,58 470,68 Q 490,78 510,68 Q 530,58 550,68 Q 570,78 590,68 Q 610,58 630,68 Q 650,78 670,68 Q 690,58 710,68 Q 730,78 750,68 Q 770,58 790,68 Q 810,78 830,68 L 830,80 L -10,80 Z" fill="#7A8F6F"/>

  <!-- Re-draw sections to create over/under weaving -->
  <path d="M 30,32 Q 50,42 70,32 L 70,44 Q 50,34 30,44 Z" fill="#E8AA42"/>
  <path d="M 110,32 Q 130,42 150,32 L 150,44 Q 130,34 110,44 Z" fill="#E8AA42"/>
  <path d="M 190,32 Q 210,42 230,32 L 230,44 Q 210,34 190,44 Z" fill="#E8AA42"/>
  <path d="M 270,32 Q 290,42 310,32 L 310,44 Q 290,34 270,44 Z" fill="#E8AA42"/>
  <path d="M 350,32 Q 370,42 390,32 L 390,44 Q 370,34 350,44 Z" fill="#E8AA42"/>
  <path d="M 430,32 Q 450,42 470,32 L 470,44 Q 450,34 430,44 Z" fill="#E8AA42"/>
  <path d="M 510,32 Q 530,42 550,32 L 550,44 Q 530,34 510,44 Z" fill="#E8AA42"/>
  <path d="M 590,32 Q 610,42 630,32 L 630,44 Q 610,34 590,44 Z" fill="#E8AA42"/>
  <path d="M 670,32 Q 690,42 710,32 L 710,44 Q 690,34 670,44 Z" fill="#E8AA42"/>
  <path d="M 750,32 Q 770,42 790,32 L 790,44 Q 770,34 750,44 Z" fill="#E8AA42"/>

  <path d="M -10,44 Q 10,54 30,44 L 30,56 Q 10,46 -10,56 Z" fill="#D4764D"/>
  <path d="M 70,44 Q 90,54 110,44 L 110,56 Q 90,46 70,56 Z" fill="#D4764D"/>
  <path d="M 150,44 Q 170,54 190,44 L 190,56 Q 170,46 150,56 Z" fill="#D4764D"/>
  <path d="M 230,44 Q 250,54 270,44 L 270,56 Q 250,46 230,56 Z" fill="#D4764D"/>
  <path d="M 310,44 Q 330,54 350,44 L 350,56 Q 330,46 310,56 Z" fill="#D4764D"/>
  <path d="M 390,44 Q 410,54 430,44 L 430,56 Q 410,46 390,56 Z" fill="#D4764D"/>
  <path d="M 470,44 Q 490,54 510,44 L 510,56 Q 490,46 470,56 Z" fill="#D4764D"/>
  <path d="M 550,44 Q 570,54 590,44 L 590,56 Q 570,46 550,56 Z" fill="#D4764D"/>
  <path d="M 630,44 Q 650,54 670,44 L 670,56 Q 650,46 630,56 Z" fill="#D4764D"/>
  <path d="M 710,44 Q 730,54 750,44 L 750,56 Q 730,46 710,56 Z" fill="#D4764D"/>
  <path d="M 790,44 Q 810,54 830,44 L 830,56 Q 810,46 790,56 Z" fill="#D4764D"/>

  <path d="M 30,56 Q 50,66 70,56 L 70,68 Q 50,58 30,68 Z" fill="#B85740"/>
  <path d="M 110,56 Q 130,66 150,56 L 150,68 Q 130,58 110,68 Z" fill="#B85740"/>
  <path d="M 190,56 Q 210,66 230,56 L 230,68 Q 210,58 190,68 Z" fill="#B85740"/>
  <path d="M 270,56 Q 290,66 310,56 L 310,68 Q 290,58 270,68 Z" fill="#B85740"/>
  <path d="M 350,56 Q 370,66 390,56 L 390,68 Q 370,58 350,68 Z" fill="#B85740"/>
  <path d="M 430,56 Q 450,66 470,56 L 470,68 Q 450,58 430,68 Z" fill="#B85740"/>
  <path d="M 510,56 Q 530,66 550,56 L 550,68 Q 530,58 510,68 Z" fill="#B85740"/>
  <path d="M 590,56 Q 610,66 630,56 L 630,68 Q 610,58 590,68 Z" fill="#B85740"/>
  <path d="M 670,56 Q 690,66 710,56 L 710,68 Q 690,58 670,68 Z" fill="#B85740"/>
  <path d="M 750,56 Q 770,66 790,56 L 790,68 Q 770,58 750,68 Z" fill="#B85740"/>
  </g>
</svg>
